<svg width="33" height="24" viewBox="0 0 33 24" fill="none" xmlns="http://www.w3.org/2000/svg">
<path d="M3 24C2.175 24 1.46875 23.7062 0.88125 23.1187C0.29375 22.5312 0 21.825 0 21V4.5H3V21H28.5V24H3ZM9 18C8.175 18 7.46875 17.7062 6.88125 17.1187C6.29375 16.5312 6 15.825 6 15V3C6 2.175 6.29375 1.46875 6.88125 0.88125C7.46875 0.29375 8.175 0 9 0H30C30.825 0 31.5313 0.29375 32.1188 0.88125C32.7063 1.46875 33 2.175 33 3V15C33 15.825 32.7063 16.5312 32.1188 17.1187C31.5313 17.7062 30.825 18 30 18H9ZM12 15C12 14.175 11.7062 13.4688 11.1187 12.8813C10.5312 12.2938 9.825 12 9 12V15H12ZM27 15H30V12C29.175 12 28.4688 12.2938 27.8813 12.8813C27.2938 13.4688 27 14.175 27 15ZM19.5 13.5C20.75 13.5 21.8125 13.0625 22.6875 12.1875C23.5625 11.3125 24 10.25 24 9C24 7.75 23.5625 6.6875 22.6875 5.8125C21.8125 4.9375 20.75 4.5 19.5 4.5C18.25 4.5 17.1875 4.9375 16.3125 5.8125C15.4375 6.6875 15 7.75 15 9C15 10.25 15.4375 11.3125 16.3125 12.1875C17.1875 13.0625 18.25 13.5 19.5 13.5ZM9 6C9.825 6 10.5312 5.70625 11.1187 5.11875C11.7062 4.53125 12 3.825 12 3H9V6ZM30 6V3H27C27 3.825 27.2938 4.53125 27.8813 5.11875C28.4688 5.70625 29.175 6 30 6Z" fill="#8B51FE"/>
</svg>
