<svg width="19" height="19" viewBox="0 0 19 19" fill="none" xmlns="http://www.w3.org/2000/svg">
<path d="M2.62494 7.69683L4.82495 8.6276C5.09675 8.08401 5.3865 7.55868 5.6942 7.05162C6.00189 6.54457 6.341 6.04552 6.71152 5.55449L5.2442 5.26988C5.19292 5.25706 5.14324 5.25866 5.09516 5.27469C5.04707 5.29071 5.0038 5.31796 4.96534 5.35642L2.62494 7.69683ZM6.02108 9.56989L8.86146 12.3949C9.60634 12.0833 10.3788 11.6526 11.1788 11.1026C11.9788 10.5526 12.7384 9.91796 13.4576 9.19873C14.5794 8.07693 15.447 6.85483 16.0605 5.5324C16.674 4.20997 16.9775 2.84939 16.9711 1.45066C15.5723 1.44425 14.2108 1.74778 12.8865 2.36124C11.5621 2.97469 10.339 3.84232 9.21724 4.96411C8.49801 5.68334 7.86339 6.44456 7.31339 7.24777C6.76339 8.05097 6.33262 8.82501 6.02108 9.56989ZM10.8365 7.56986C10.498 7.2314 10.3288 6.81987 10.3288 6.33526C10.3288 5.85065 10.498 5.43911 10.8365 5.10066C11.1749 4.7622 11.5906 4.59297 12.0836 4.59297C12.5765 4.59297 12.9922 4.7622 13.3307 5.10066C13.6692 5.43911 13.8384 5.85065 13.8384 6.33526C13.8384 6.81987 13.6692 7.2314 13.3307 7.56986C12.9922 7.90832 12.5765 8.07755 12.0836 8.07755C11.5906 8.07755 11.1749 7.90832 10.8365 7.56986ZM10.7249 15.8064L13.0653 13.466C13.1038 13.4275 13.131 13.3843 13.147 13.3362C13.1631 13.2881 13.1647 13.2384 13.1519 13.1871L12.8672 11.7198C12.3762 12.0904 11.8772 12.4269 11.3701 12.7295C10.8631 13.032 10.3377 13.3192 9.79413 13.591L10.7249 15.8064ZM18.3384 0.0776116C18.5524 2.00453 18.3246 3.8308 17.6547 5.55643C16.9848 7.28206 15.8826 8.91217 14.348 10.4468C14.3159 10.4788 14.2871 10.5077 14.2614 10.5333C14.2358 10.559 14.207 10.5878 14.1749 10.6199L14.6268 12.8833C14.6871 13.1846 14.6736 13.4775 14.5864 13.7621C14.4993 14.0468 14.3486 14.2961 14.1345 14.5102L10.2134 18.4217L8.33455 14.0064L4.41535 10.0872L0 8.19874L3.89613 4.28722C4.11023 4.07312 4.36216 3.92087 4.6519 3.83049C4.94164 3.74011 5.23715 3.72504 5.53843 3.7853L7.82111 4.24683C7.85316 4.21478 7.8804 4.18593 7.90284 4.16029C7.92528 4.13465 7.95253 4.1058 7.98458 4.07374C9.51918 2.53914 11.1467 1.43595 12.8672 0.764156C14.5877 0.0923647 16.4114 -0.136484 18.3384 0.0776116ZM1.72692 13.1468C2.21409 12.6596 2.80799 12.4151 3.50862 12.4131C4.20926 12.4112 4.80316 12.6538 5.29033 13.141C5.7775 13.6282 6.01852 14.2221 6.0134 14.9227C6.00827 15.6234 5.76212 16.2173 5.27495 16.7044C4.89674 17.0826 4.27624 17.4073 3.41342 17.6785C2.55061 17.9496 1.44358 18.1666 0.0923218 18.3294C0.255137 16.9782 0.473723 15.8711 0.74808 15.0083C1.02244 14.1455 1.34872 13.525 1.72692 13.1468ZM2.79612 14.2102C2.61664 14.3897 2.44356 14.6987 2.27689 15.1371C2.11023 15.5756 1.99676 16.023 1.93651 16.4795C2.39292 16.4192 2.84035 16.3067 3.27882 16.142C3.71728 15.9772 4.02625 15.8051 4.20574 15.6256C4.40574 15.4256 4.51087 15.1855 4.52112 14.9054C4.53138 14.6253 4.43651 14.3852 4.23651 14.1852C4.03651 13.9852 3.79644 13.8894 3.51632 13.8977C3.23619 13.9061 2.99612 14.0102 2.79612 14.2102Z" fill="black"/>
</svg>
