<svg width="19" height="17" viewBox="0 0 19 17" fill="none" xmlns="http://www.w3.org/2000/svg">
<path d="M0 3.49996V1.80768C0 1.30255 0.174998 0.874992 0.524995 0.524995C0.874992 0.174998 1.30255 0 1.80768 0H17.1922C17.6974 0 18.1249 0.174998 18.4749 0.524995C18.8249 0.874992 18.9999 1.30255 18.9999 1.80768V3.49996H17.5V1.80768C17.5 1.71793 17.4711 1.6442 17.4134 1.58651C17.3557 1.52881 17.282 1.49996 17.1922 1.49996H1.80768C1.71793 1.49996 1.6442 1.52881 1.58651 1.58651C1.52881 1.6442 1.49996 1.71793 1.49996 1.80768V3.49996H0ZM6 16.9999V14.9999H1.80768C1.30255 14.9999 0.874992 14.8249 0.524995 14.4749C0.174998 14.1249 0 13.6974 0 13.1922V11.5H1.49996V13.1922C1.49996 13.282 1.52881 13.3557 1.58651 13.4134C1.6442 13.4711 1.71793 13.5 1.80768 13.5H17.1922C17.282 13.5 17.3557 13.4711 17.4134 13.4134C17.4711 13.3557 17.5 13.282 17.5 13.1922V11.5H18.9999V13.1922C18.9999 13.6974 18.8249 14.1249 18.4749 14.4749C18.1249 14.8249 17.6974 14.9999 17.1922 14.9999H12.9999V16.9999H6ZM2.10764 7.49996L4.70764 4.89996L3.65382 3.84614L0 7.49996L3.65382 11.1538L4.70764 10.1L2.10764 7.49996ZM16.8923 7.49996L14.2923 10.1L15.3461 11.1538L18.9999 7.49996L15.3461 3.84614L14.2923 4.89996L16.8923 7.49996Z" fill="black"/>
</svg>
